<mxfile host="Electron" modified="2024-04-11T11:54:27.899Z" agent="Mozilla/5.0 (Windows NT 10.0; Win64; x64) AppleWebKit/537.36 (KHTML, like Gecko) draw.io/22.1.21 Chrome/120.0.6099.109 Electron/28.1.0 Safari/537.36" etag="FTIwWs2QfQVQgKvvSyMP" version="22.1.21" type="device">
  <diagram name="Seite-1" id="XPnfcq8yqLJJhHVzkgbp">
    <mxGraphModel dx="1434" dy="836" grid="1" gridSize="10" guides="1" tooltips="1" connect="1" arrows="1" fold="1" page="1" pageScale="1" pageWidth="827" pageHeight="1169" math="0" shadow="0">
      <root>
        <mxCell id="0" />
        <mxCell id="1" parent="0" />
        <mxCell id="QIsNG-gfqK-DTPx1LG9J-2" value="" style="whiteSpace=wrap;html=1;aspect=fixed;" vertex="1" parent="1">
          <mxGeometry x="50" y="30" width="130" height="130" as="geometry" />
        </mxCell>
        <mxCell id="QIsNG-gfqK-DTPx1LG9J-3" value="MBot" style="text;html=1;align=center;verticalAlign=middle;resizable=0;points=[];autosize=1;strokeColor=none;fillColor=none;" vertex="1" parent="1">
          <mxGeometry x="50" y="30" width="50" height="30" as="geometry" />
        </mxCell>
        <mxCell id="QIsNG-gfqK-DTPx1LG9J-5" value="MicroPython" style="whiteSpace=wrap;html=1;aspect=fixed;" vertex="1" parent="1">
          <mxGeometry x="75" y="55" width="80" height="80" as="geometry" />
        </mxCell>
        <mxCell id="QIsNG-gfqK-DTPx1LG9J-7" value="" style="whiteSpace=wrap;html=1;aspect=fixed;" vertex="1" parent="1">
          <mxGeometry x="330" y="270" width="130" height="130" as="geometry" />
        </mxCell>
        <mxCell id="QIsNG-gfqK-DTPx1LG9J-8" value="Server" style="text;html=1;align=center;verticalAlign=middle;resizable=0;points=[];autosize=1;strokeColor=none;fillColor=none;" vertex="1" parent="1">
          <mxGeometry x="325" y="270" width="60" height="30" as="geometry" />
        </mxCell>
        <mxCell id="QIsNG-gfqK-DTPx1LG9J-9" value="Sprint Boot" style="whiteSpace=wrap;html=1;aspect=fixed;" vertex="1" parent="1">
          <mxGeometry x="355" y="295" width="80" height="80" as="geometry" />
        </mxCell>
        <mxCell id="QIsNG-gfqK-DTPx1LG9J-10" value="" style="whiteSpace=wrap;html=1;aspect=fixed;" vertex="1" parent="1">
          <mxGeometry x="630" y="30" width="130" height="130" as="geometry" />
        </mxCell>
        <mxCell id="QIsNG-gfqK-DTPx1LG9J-11" value="Device (Desktop, Mobile)" style="text;html=1;align=center;verticalAlign=middle;resizable=0;points=[];autosize=1;strokeColor=none;fillColor=none;" vertex="1" parent="1">
          <mxGeometry x="615" y="30" width="160" height="30" as="geometry" />
        </mxCell>
        <mxCell id="QIsNG-gfqK-DTPx1LG9J-12" value="Avalonia (C#)" style="whiteSpace=wrap;html=1;aspect=fixed;" vertex="1" parent="1">
          <mxGeometry x="655" y="55" width="80" height="80" as="geometry" />
        </mxCell>
        <mxCell id="QIsNG-gfqK-DTPx1LG9J-14" value="" style="whiteSpace=wrap;html=1;aspect=fixed;" vertex="1" parent="1">
          <mxGeometry x="330" y="520" width="130" height="130" as="geometry" />
        </mxCell>
        <mxCell id="QIsNG-gfqK-DTPx1LG9J-15" value="DB-Server" style="text;html=1;align=center;verticalAlign=middle;resizable=0;points=[];autosize=1;strokeColor=none;fillColor=none;" vertex="1" parent="1">
          <mxGeometry x="325" y="520" width="80" height="30" as="geometry" />
        </mxCell>
        <mxCell id="QIsNG-gfqK-DTPx1LG9J-16" value="MongoDB" style="whiteSpace=wrap;html=1;aspect=fixed;" vertex="1" parent="1">
          <mxGeometry x="355" y="545" width="80" height="80" as="geometry" />
        </mxCell>
        <mxCell id="QIsNG-gfqK-DTPx1LG9J-18" value="" style="endArrow=none;html=1;rounded=0;exitX=1;exitY=1;exitDx=0;exitDy=0;entryX=0.067;entryY=-0.033;entryDx=0;entryDy=0;entryPerimeter=0;" edge="1" parent="1" source="QIsNG-gfqK-DTPx1LG9J-2" target="QIsNG-gfqK-DTPx1LG9J-8">
          <mxGeometry width="50" height="50" relative="1" as="geometry">
            <mxPoint x="390" y="350" as="sourcePoint" />
            <mxPoint x="320" y="260" as="targetPoint" />
          </mxGeometry>
        </mxCell>
        <mxCell id="QIsNG-gfqK-DTPx1LG9J-19" value="UDP: 5595&lt;br&gt;TCP: 5000&lt;br&gt;HTTP: 8080" style="edgeLabel;html=1;align=center;verticalAlign=middle;resizable=0;points=[];" vertex="1" connectable="0" parent="QIsNG-gfqK-DTPx1LG9J-18">
          <mxGeometry x="0.0185" y="2" relative="1" as="geometry">
            <mxPoint as="offset" />
          </mxGeometry>
        </mxCell>
        <mxCell id="QIsNG-gfqK-DTPx1LG9J-20" value="" style="endArrow=none;html=1;rounded=0;entryX=0;entryY=1;entryDx=0;entryDy=0;exitX=1;exitY=0;exitDx=0;exitDy=0;" edge="1" parent="1" source="QIsNG-gfqK-DTPx1LG9J-7" target="QIsNG-gfqK-DTPx1LG9J-10">
          <mxGeometry width="50" height="50" relative="1" as="geometry">
            <mxPoint x="390" y="350" as="sourcePoint" />
            <mxPoint x="440" y="300" as="targetPoint" />
          </mxGeometry>
        </mxCell>
        <mxCell id="QIsNG-gfqK-DTPx1LG9J-26" value="UDP: 5595&lt;br&gt;TCP: 5000&lt;br&gt;HTTP: 8080" style="edgeLabel;html=1;align=center;verticalAlign=middle;resizable=0;points=[];" vertex="1" connectable="0" parent="QIsNG-gfqK-DTPx1LG9J-20">
          <mxGeometry x="-0.0137" relative="1" as="geometry">
            <mxPoint as="offset" />
          </mxGeometry>
        </mxCell>
        <mxCell id="QIsNG-gfqK-DTPx1LG9J-22" value="" style="endArrow=none;html=1;rounded=0;entryX=0.5;entryY=1;entryDx=0;entryDy=0;exitX=0.875;exitY=0.033;exitDx=0;exitDy=0;exitPerimeter=0;" edge="1" parent="1" source="QIsNG-gfqK-DTPx1LG9J-15" target="QIsNG-gfqK-DTPx1LG9J-7">
          <mxGeometry width="50" height="50" relative="1" as="geometry">
            <mxPoint x="210" y="490" as="sourcePoint" />
            <mxPoint x="260" y="440" as="targetPoint" />
          </mxGeometry>
        </mxCell>
        <mxCell id="QIsNG-gfqK-DTPx1LG9J-23" value="TCP: 27017" style="edgeLabel;html=1;align=center;verticalAlign=middle;resizable=0;points=[];" vertex="1" connectable="0" parent="QIsNG-gfqK-DTPx1LG9J-22">
          <mxGeometry x="0.0412" y="-1" relative="1" as="geometry">
            <mxPoint as="offset" />
          </mxGeometry>
        </mxCell>
      </root>
    </mxGraphModel>
  </diagram>
</mxfile>
